  0
SECTION
  2
HEADER
  9
$ACADVER
  1
AC1014
  9
$HANDSEED
  5
FFFF
  9
$MEASUREMENT
 70
     1
  0
ENDSEC
  0
SECTION
  2
TABLES
  0
TABLE
  2
VPORT
  5
8
330
0
100
AcDbSymbolTable
 70
     4
  0
VPORT
  5
2E
330
8
100
AcDbSymbolTableRecord
100
AcDbViewportTableRecord
  2
*ACTIVE
 70
     0
 10
0.0
 20
0.0
 11
1.0
 21
1.0
 12
210.0
 22
148.5
 13
0.0
 23
0.0
 14
10.0
 24
10.0
 15
10.0
 25
10.0
 16
0.0
 26
0.0
 36
1.0
 17
0.0
 27
0.0
 37
0.0
 40
341.0
 41
1.24
 42
50.0
 43
0.0
 44
0.0
 50
0.0
 51
0.0
 71
     0
 72
   100
 73
     1
 74
     3
 75
     0
 76
     0
 77
     0
 78
     0
  0
ENDTAB
  0
TABLE
  2
LTYPE
  5
5
330
0
100
AcDbSymbolTable
 70
     1
  0
LTYPE
  5
14
330
5
100
AcDbSymbolTableRecord
100
AcDbLinetypeTableRecord
  2
BYBLOCK
 70
     0
  3

 72
    65
 73
     0
 40
0.0
  0
LTYPE
  5
15
330
5
100
AcDbSymbolTableRecord
100
AcDbLinetypeTableRecord
  2
BYLAYER
 70
     0
  3

 72
    65
 73
     0
 40
0.0
  0
LTYPE
  5
16
330
5
100
AcDbSymbolTableRecord
100
AcDbLinetypeTableRecord
  2
CONTINUOUS
 70
     0
  3
Solid line
 72
    65
 73
     0
 40
0.0
  0
ENDTAB
  0
TABLE
  2
LAYER
  5
2
100
AcDbSymbolTable
 70
5
  0
LAYER
  5
50
100
AcDbSymbolTableRecord
100
AcDbLayerTableRecord
  2
0
 70
0
  6
CONTINUOUS
  0
LAYER
  5
51
100
AcDbSymbolTableRecord
100
AcDbLayerTableRecord
  2
mfos_vco_VI_panel_2
 70
0
  6
CONTINUOUS
  0
LAYER
  5
52
100
AcDbSymbolTableRecord
100
AcDbLayerTableRecord
  2
holes
 70
0
  6
CONTINUOUS
  0
LAYER
  5
53
100
AcDbSymbolTableRecord
100
AcDbLayerTableRecord
  2
text
 70
0
  6
CONTINUOUS
  0
LAYER
  5
54
100
AcDbSymbolTableRecord
100
AcDbLayerTableRecord
  2
overlay#1
 70
0
  6
CONTINUOUS
  0
ENDTAB
  0
TABLE
  2
STYLE
  5
3
330
0
100
AcDbSymbolTable
 70
     1
  0
STYLE
  5
11
330
3
100
AcDbSymbolTableRecord
100
AcDbTextStyleTableRecord
  2
STANDARD
 70
     0
 40
0.0
 41
1.0
 50
0.0
 71
     0
 42
2.5
  3
txt
  4

  0
ENDTAB
  0
TABLE
  2
VIEW
  5
6
330
0
100
AcDbSymbolTable
 70
     0
  0
ENDTAB
  0
TABLE
  2
UCS
  5
7
330
0
100
AcDbSymbolTable
 70
     0
  0
ENDTAB
  0
TABLE
  2
APPID
  5
9
330
0
100
AcDbSymbolTable
 70
     2
  0
APPID
  5
12
330
9
100
AcDbSymbolTableRecord
100
AcDbRegAppTableRecord
  2
ACAD
 70
     0
  0
ENDTAB
  0
TABLE
  2
DIMSTYLE
  5
A
330
0
100
AcDbSymbolTable
 70
     1
  0
DIMSTYLE
105
27
330
A
100
AcDbSymbolTableRecord
100
AcDbDimStyleTableRecord
  2
ISO-25
 70
     0
  3

  4

  5

  6

  7

 40
1.0
 41
2.5
 42
0.625
 43
3.75
 44
1.25
 45
0.0
 46
0.0
 47
0.0
 48
0.0
140
2.5
141
2.5
142
0.0
143
0.03937007874016
144
1.0
145
0.0
146
1.0
147
0.625
 71
     0
 72
     0
 73
     0
 74
     0
 75
     0
 76
     0
 77
     1
 78
     8
170
     0
171
     3
172
     1
173
     0
174
     0
175
     0
176
     0
177
     0
178
     0
270
     2
271
     2
272
     2
273
     2
274
     3
340
11
275
     0
280
     0
281
     0
282
     0
283
     0
284
     8
285
     0
286
     0
287
     3
288
     0
  0
ENDTAB
  0
TABLE
  2
BLOCK_RECORD
  5
1
330
0
100
AcDbSymbolTable
 70
     1
  0
BLOCK_RECORD
  5
1F
330
1
100
AcDbSymbolTableRecord
100
AcDbBlockTableRecord
  2
*MODEL_SPACE
  0
BLOCK_RECORD
  5
1B
330
1
100
AcDbSymbolTableRecord
100
AcDbBlockTableRecord
  2
*PAPER_SPACE
  0
ENDTAB
  0
ENDSEC
  0
SECTION
  2
BLOCKS
  0
BLOCK
  5
20
330
1F
100
AcDbEntity
  8
0
100
AcDbBlockBegin
  2
*MODEL_SPACE
 70
     0
 10
0.0
 20
0.0
 30
0.0
  3
*MODEL_SPACE
  1

  0
ENDBLK
  5
21
330
1F
100
AcDbEntity
  8
0
100
AcDbBlockEnd
  0
BLOCK
  5
1C
330
1B
100
AcDbEntity
 67
     1
  8
0
100
AcDbBlockBegin
  2
*PAPER_SPACE
  1

  0
ENDBLK
  5
1D
330
1B
100
AcDbEntity
 67
     1
  8
0
100
AcDbBlockEnd
  0
ENDSEC
  0
SECTION
  2
ENTITIES
  0
LWPOLYLINE
  5
100
100
AcDbEntity
  8
text
 62
5
100
AcDbPolyline
 90
5
 70
1
 10
6.543297
 20
272.415628
 30
0.0
 10
209.379307
 20
272.415628
 30
0.0
 10
209.379307
 20
29.172025
 30
0.0
 10
6.543297
 20
29.172025
 30
0.0
 10
6.543297
 20
272.415628
 30
0.0
  0
LWPOLYLINE
  5
101
100
AcDbEntity
  8
text
 62
7
100
AcDbPolyline
 90
6
 70
0
 10
30.065583
 20
140.068973
 30
0.0
 10
16.709304
 20
140.068973
 30
0.0
 10
16.709304
 20
268.543439
 30
0.0
 10
53.691827
 20
268.543439
 30
0.0
 10
53.691827
 20
140.068973
 30
0.0
 10
16.709304
 20
140.068973
 30
0.0
  0
SPLINE
  5
102
100
AcDbEntity
  8
text
 62
1
100
AcDbSpline
 70
0
 71
3
 72
31
 73
27
 74
25
 40
0.000000
 40
0.000000
 40
0.000000
 40
0.000000
 40
0.062937
 40
0.126191
 40
0.191411
 40
0.258260
 40
0.325918
 40
0.394921
 40
0.463924
 40
0.531582
 40
0.598431
 40
0.663651
 40
0.726905
 40
0.789842
 40
0.852778
 40
0.916033
 40
0.981253
 40
1.048102
 40
1.115760
 40
1.184763
 40
1.253766
 40
1.321424
 40
1.388273
 40
1.453493
 40
1.516747
 40
1.579684
 40
1.579684
 40
1.579684
 40
1.579684
 10
46.037698
 20
265.379402
 30
0.0
 10
46.035918
 20
265.358352
 30
0.0
 10
46.032351
 20
265.316147
 30
0.0
 10
46.004334
 20
265.257404
 30
0.0
 10
45.961973
 20
265.207181
 30
0.0
 10
45.906564
 20
265.168867
 30
0.0
 10
45.842432
 20
265.144858
 30
0.0
 10
45.773706
 20
265.136661
 30
0.0
 10
45.704987
 20
265.144858
 30
0.0
 10
45.640832
 20
265.168867
 30
0.0
 10
45.585505
 20
265.207181
 30
0.0
 10
45.542850
 20
265.257404
 30
0.0
 10
45.515892
 20
265.316147
 30
0.0
 10
45.506636
 20
265.379402
 30
0.0
 10
45.515892
 20
265.442656
 30
0.0
 10
45.542850
 20
265.501399
 30
0.0
 10
45.585505
 20
265.551623
 30
0.0
 10
45.640832
 20
265.589937
 30
0.0
 10
45.704987
 20
265.613946
 30
0.0
 10
45.773706
 20
265.622142
 30
0.0
 10
45.842432
 20
265.613946
 30
0.0
 10
45.906564
 20
265.589937
 30
0.0
 10
45.961973
 20
265.551623
 30
0.0
 10
46.004334
 20
265.501399
 30
0.0
 10
46.032351
 20
265.442656
 30
0.0
 10
46.035918
 20
265.400451
 30
0.0
 10
46.037698
 20
265.379402
 30
0.0
 11
46.037698
 21
265.379402
 31
0.0
 11
46.028653
 21
265.317118
 31
0.0
 11
46.002426
 21
265.259557
 31
0.0
 11
45.960376
 21
265.209702
 31
0.0
 11
45.905536
 21
265.171476
 31
0.0
 11
45.842218
 21
265.147633
 31
0.0
 11
45.773707
 21
265.139411
 31
0.0
 11
45.705195
 21
265.147633
 31
0.0
 11
45.641878
 21
265.171476
 31
0.0
 11
45.587037
 21
265.209702
 31
0.0
 11
45.544988
 21
265.259557
 31
0.0
 11
45.518761
 21
265.317118
 31
0.0
 11
45.509716
 21
265.379402
 31
0.0
 11
45.518761
 21
265.441685
 31
0.0
 11
45.544988
 21
265.499246
 31
0.0
 11
45.587037
 21
265.549101
 31
0.0
 11
45.641878
 21
265.587328
 31
0.0
 11
45.705195
 21
265.611170
 31
0.0
 11
45.773707
 21
265.619392
 31
0.0
 11
45.842218
 21
265.611170
 31
0.0
 11
45.905536
 21
265.587328
 31
0.0
 11
45.960376
 21
265.549101
 31
0.0
 11
46.002426
 21
265.499246
 31
0.0
 11
46.028653
 21
265.441685
 31
0.0
 11
46.037698
 21
265.379402
 31
0.0
  0
LWPOLYLINE
  5
103
100
AcDbEntity
  8
text
 62
1
100
AcDbPolyline
 90
2
 70
1
 10
46.037698
 20
265.379402
 30
0.0
 10
46.037698
 20
265.379402
 30
0.0
  0
SPLINE
  5
104
100
AcDbEntity
  8
text
 62
1
100
AcDbSpline
 70
0
 71
3
 72
19
 73
15
 74
13
 40
0.000000
 40
0.000000
 40
0.000000
 40
0.000000
 40
0.089771
 40
0.187937
 40
0.299338
 40
0.410740
 40
0.508905
 40
0.598676
 40
0.688447
 40
0.786613
 40
0.898014
 40
1.009416
 40
1.107581
 40
1.197353
 40
1.197353
 40
1.197353
 40
1.197353
 10
25.321579
 20
143.168064
 30
0.0
 10
25.314925
 20
143.137892
 30
0.0
 10
25.300994
 20
143.074729
 30
0.0
 10
25.212299
 20
143.014084
 30
0.0
 10
25.105893
 20
142.992622
 30
0.0
 10
24.997724
 20
143.014084
 30
0.0
 10
24.913571
 20
143.074729
 30
0.0
 10
24.878143
 20
143.168064
 30
0.0
 10
24.913571
 20
143.261399
 30
0.0
 10
24.997724
 20
143.322043
 30
0.0
 10
25.105893
 20
143.343506
 30
0.0
 10
25.212299
 20
143.322043
 30
0.0
 10
25.300994
 20
143.261399
 30
0.0
 10
25.314925
 20
143.198235
 30
0.0
 10
25.321579
 20
143.168064
 30
0.0
 11
25.321579
 21
143.168064
 31
0.0
 11
25.292089
 21
143.083274
 31
0.0
 11
25.214602
 21
143.023007
 31
0.0
 11
25.105587
 21
143.000071
 31
0.0
 11
24.996572
 21
143.023007
 31
0.0
 11
24.919085
 21
143.083274
 31
0.0
 11
24.889595
 21
143.168064
 31
0.0
 11
24.919085
 21
143.252853
 31
0.0
 11
24.996572
 21
143.313121
 31
0.0
 11
25.105587
 21
143.336056
 31
0.0
 11
25.214602
 21
143.313121
 31
0.0
 11
25.292089
 21
143.252853
 31
0.0
 11
25.321579
 21
143.168064
 31
0.0
  0
LWPOLYLINE
  5
105
100
AcDbEntity
  8
text
 62
1
100
AcDbPolyline
 90
2
 70
1
 10
25.321579
 20
143.168064
 30
0.0
 10
25.321579
 20
143.168064
 30
0.0
  0
LWPOLYLINE
  5
106
100
AcDbEntity
  8
text
 62
1
100
AcDbPolyline
 90
2
 70
0
 10
27.593993
 20
198.015842
 30
0.0
 10
29.954429
 20
198.015842
 30
0.0
  0
SPLINE
  5
107
100
AcDbEntity
  8
text
 62
1
100
AcDbSpline
 70
0
 71
3
 72
19
 73
15
 74
13
 40
0.000000
 40
0.000000
 40
0.000000
 40
0.000000
 40
1.596244
 40
3.049669
 40
4.645981
 40
6.242661
 40
7.695800
 40
9.291968
 40
10.887983
 40
12.341177
 40
13.937876
 40
15.534206
 40
16.987686
 40
18.583778
 40
18.583778
 40
18.583778
 40
18.583778
 10
25.821637
 20
198.015842
 30
0.0
 10
25.884845
 20
198.558220
 30
0.0
 10
26.005605
 20
199.594451
 30
0.0
 10
27.202621
 20
200.757157
 30
0.0
 10
28.771665
 20
201.077610
 30
0.0
 10
30.353078
 20
200.757350
 30
0.0
 10
31.515128
 20
199.594330
 30
0.0
 10
31.835438
 20
198.015887
 30
0.0
 10
31.515071
 20
196.437463
 30
0.0
 10
30.353100
 20
195.274429
 30
0.0
 10
28.771665
 20
194.954024
 30
0.0
 10
27.202600
 20
195.274622
 30
0.0
 10
26.005663
 20
196.437339
 30
0.0
 10
25.884862
 20
197.473522
 30
0.0
 10
25.821637
 20
198.015842
 30
0.0
 11
25.821637
 21
198.015842
 31
0.0
 11
26.193439
 21
199.568181
 31
0.0
 11
27.221250
 21
200.595823
 31
0.0
 11
28.773682
 21
200.967533
 31
0.0
 11
30.326492
 21
200.595823
 31
0.0
 11
31.353898
 21
199.568181
 31
0.0
 11
31.725373
 21
198.015842
 31
0.0
 11
31.353898
 21
196.463659
 31
0.0
 11
30.326492
 21
195.435938
 31
0.0
 11
28.773682
 21
195.064150
 31
0.0
 11
27.221250
 21
195.435938
 31
0.0
 11
26.193439
 21
196.463659
 31
0.0
 11
25.821637
 21
198.015842
 31
0.0
  0
LWPOLYLINE
  5
108
100
AcDbEntity
  8
text
 62
1
100
AcDbPolyline
 90
2
 70
0
 10
28.773682
 20
196.835094
 30
0.0
 10
28.773682
 20
199.196942
 30
0.0
  0
LWPOLYLINE
  5
109
100
AcDbEntity
  8
text
 62
1
100
AcDbPolyline
 90
2
 70
0
 10
27.553214
 20
181.575045
 30
0.0
 10
29.913651
 20
181.575045
 30
0.0
  0
LWPOLYLINE
  5
10a
100
AcDbEntity
  8
text
 62
1
100
AcDbPolyline
 90
2
 70
0
 10
28.732903
 20
180.394298
 30
0.0
 10
28.732903
 20
182.756145
 30
0.0
  0
LWPOLYLINE
  5
10b
100
AcDbEntity
  8
text
 62
7
100
AcDbPolyline
 90
5
 70
1
 10
22.063573
 20
216.796904
 30
0.0
 10
48.963094
 20
216.796904
 30
0.0
 10
48.963094
 20
243.696424
 30
0.0
 10
22.063573
 20
243.696424
 30
0.0
 10
22.063573
 20
216.796904
 30
0.0
  0
SPLINE
  5
10c
100
AcDbEntity
  8
text
 62
1
100
AcDbSpline
 70
0
 71
3
 72
19
 73
15
 74
13
 40
0.000000
 40
0.000000
 40
0.000000
 40
0.000000
 40
1.596244
 40
3.049669
 40
4.645981
 40
6.242661
 40
7.695800
 40
9.291968
 40
10.887983
 40
12.341177
 40
13.937876
 40
15.534206
 40
16.987686
 40
18.583778
 40
18.583778
 40
18.583778
 40
18.583778
 10
25.780859
 20
181.575045
 30
0.0
 10
25.844066
 20
182.117424
 30
0.0
 10
25.964826
 20
183.153654
 30
0.0
 10
27.161843
 20
184.316361
 30
0.0
 10
28.730886
 20
184.636814
 30
0.0
 10
30.312300
 20
184.316554
 30
0.0
 10
31.474350
 20
183.153534
 30
0.0
 10
31.794660
 20
181.575091
 30
0.0
 10
31.474293
 20
179.996667
 30
0.0
 10
30.312321
 20
178.833632
 30
0.0
 10
28.730886
 20
178.513228
 30
0.0
 10
27.161821
 20
178.833826
 30
0.0
 10
25.964884
 20
179.996543
 30
0.0
 10
25.844084
 20
181.032726
 30
0.0
 10
25.780859
 20
181.575045
 30
0.0
 11
25.780859
 21
181.575045
 31
0.0
 11
26.152661
 21
183.127385
 31
0.0
 11
27.180472
 21
184.155027
 31
0.0
 11
28.732903
 21
184.526737
 31
0.0
 11
30.285714
 21
184.155027
 31
0.0
 11
31.313120
 21
183.127385
 31
0.0
 11
31.684595
 21
181.575045
 31
0.0
 11
31.313120
 21
180.022862
 31
0.0
 11
30.285714
 21
178.995142
 31
0.0
 11
28.732903
 21
178.623354
 31
0.0
 11
27.180472
 21
178.995142
 31
0.0
 11
26.152661
 21
180.022862
 31
0.0
 11
25.780859
 21
181.575045
 31
0.0
  0
LWPOLYLINE
  5
10d
100
AcDbEntity
  8
text
 62
7
100
AcDbPolyline
 90
5
 70
1
 10
22.050773
 20
220.784102
 30
0.0
 10
48.975894
 20
220.784102
 30
0.0
 10
48.975894
 20
235.709221
 30
0.0
 10
22.050773
 20
235.709221
 30
0.0
 10
22.050773
 20
220.784102
 30
0.0
  0
SPLINE
  5
10e
100
AcDbEntity
  8
text
 62
7
100
AcDbSpline
 70
0
 71
3
 72
25
 73
21
 74
19
 40
0.000000
 40
0.000000
 40
0.000000
 40
0.000000
 40
0.012521
 40
0.024938
 40
0.037459
 40
0.049980
 40
0.062397
 40
0.074918
 40
0.087439
 40
0.099856
 40
0.112377
 40
0.124898
 40
0.137315
 40
0.149836
 40
0.174844
 40
0.199110
 40
0.224117
 40
0.249125
 40
0.273391
 40
0.298399
 40
0.298399
 40
0.298399
 40
0.298399
 10
25.015504
 20
241.696667
 30
0.0
 10
25.015822
 20
241.692482
 30
0.0
 10
25.016457
 20
241.684145
 30
0.0
 10
25.021476
 20
241.672479
 30
0.0
 10
25.029111
 20
241.662455
 30
0.0
 10
25.039148
 20
241.654770
 30
0.0
 10
25.050811
 20
241.649937
 30
0.0
 10
25.063334
 20
241.648284
 30
0.0
 10
25.075855
 20
241.649937
 30
0.0
 10
25.087522
 20
241.654769
 30
0.0
 10
25.097545
 20
241.662456
 30
0.0
 10
25.105232
 20
241.672477
 30
0.0
 10
25.110060
 20
241.684151
 30
0.0
 10
25.112286
 20
241.700812
 30
0.0
 10
25.106671
 20
241.721733
 30
0.0
 10
25.088387
 20
241.739995
 30
0.0
 10
25.063290
 20
241.746779
 30
0.0
 10
25.038451
 20
241.740000
 30
0.0
 10
25.019409
 20
241.721712
 30
0.0
 10
25.016818
 20
241.705099
 30
0.0
 10
25.015504
 20
241.696667
 30
0.0
 11
25.015504
 21
241.696667
 31
0.0
 11
25.017142
 21
241.684254
 31
0.0
 11
25.021894
 21
241.672782
 31
0.0
 11
25.029512
 21
241.662846
 31
0.0
 11
25.039448
 21
241.655227
 31
0.0
 11
25.050920
 21
241.650475
 31
0.0
 11
25.063333
 21
241.648836
 31
0.0
 11
25.075747
 21
241.650475
 31
0.0
 11
25.087219
 21
241.655227
 31
0.0
 11
25.097155
 21
241.662846
 31
0.0
 11
25.104773
 21
241.672782
 31
0.0
 11
25.109525
 21
241.684254
 31
0.0
 11
25.111163
 21
241.696667
 31
0.0
 11
25.104633
 21
241.720807
 31
0.0
 11
25.087474
 21
241.737966
 31
0.0
 11
25.063333
 21
241.744496
 31
0.0
 11
25.039193
 21
241.737966
 31
0.0
 11
25.022034
 21
241.720807
 31
0.0
 11
25.015504
 21
241.696667
 31
0.0
  0
LWPOLYLINE
  5
10f
100
AcDbEntity
  8
text
 62
7
100
AcDbPolyline
 90
2
 70
1
 10
25.015504
 20
241.696667
 30
0.0
 10
25.015504
 20
241.696667
 30
0.0
  0
SPLINE
  5
110
100
AcDbEntity
  8
text
 62
7
100
AcDbSpline
 70
0
 71
3
 72
25
 73
21
 74
19
 40
0.000000
 40
0.000000
 40
0.000000
 40
0.000000
 40
0.025008
 40
0.049274
 40
0.074281
 40
0.099289
 40
0.123555
 40
0.148563
 40
0.161084
 40
0.173501
 40
0.186022
 40
0.198543
 40
0.210960
 40
0.223481
 40
0.236002
 40
0.248419
 40
0.260940
 40
0.273460
 40
0.285878
 40
0.298398
 40
0.298398
 40
0.298398
 40
0.298398
 10
46.063333
 20
241.648831
 30
0.0
 10
46.064648
 20
241.640399
 30
0.0
 10
46.067238
 20
241.623787
 30
0.0
 10
46.086280
 20
241.605498
 30
0.0
 10
46.111119
 20
241.598720
 30
0.0
 10
46.136216
 20
241.605504
 30
0.0
 10
46.154500
 20
241.623765
 30
0.0
 10
46.160115
 20
241.644686
 30
0.0
 10
46.157889
 20
241.661347
 30
0.0
 10
46.153061
 20
241.673021
 30
0.0
 10
46.145374
 20
241.683043
 30
0.0
 10
46.135351
 20
241.690729
 30
0.0
 10
46.123685
 20
241.695561
 30
0.0
 10
46.111163
 20
241.697214
 30
0.0
 10
46.098640
 20
241.695561
 30
0.0
 10
46.086977
 20
241.690729
 30
0.0
 10
46.076940
 20
241.683043
 30
0.0
 10
46.069305
 20
241.673020
 30
0.0
 10
46.064287
 20
241.661353
 30
0.0
 10
46.063652
 20
241.653016
 30
0.0
 10
46.063333
 20
241.648831
 30
0.0
 11
46.063333
 21
241.648831
 31
0.0
 11
46.069864
 21
241.624691
 31
0.0
 11
46.087022
 21
241.607533
 31
0.0
 11
46.111163
 21
241.601003
 31
0.0
 11
46.135303
 21
241.607532
 31
0.0
 11
46.152462
 21
241.624691
 31
0.0
 11
46.158992
 21
241.648831
 31
0.0
 11
46.157354
 21
241.661244
 31
0.0
 11
46.152602
 21
241.672716
 31
0.0
 11
46.144984
 21
241.682652
 31
0.0
 11
46.135048
 21
241.690271
 31
0.0
 11
46.123576
 21
241.695023
 31
0.0
 11
46.111163
 21
241.696662
 31
0.0
 11
46.098749
 21
241.695023
 31
0.0
 11
46.087277
 21
241.690271
 31
0.0
 11
46.077341
 21
241.682652
 31
0.0
 11
46.069723
 21
241.672716
 31
0.0
 11
46.064971
 21
241.661244
 31
0.0
 11
46.063333
 21
241.648831
 31
0.0
  0
LWPOLYLINE
  5
111
100
AcDbEntity
  8
text
 62
7
100
AcDbPolyline
 90
2
 70
1
 10
46.063333
 20
241.648831
 30
0.0
 10
46.063333
 20
241.648831
 30
0.0
  0
SPLINE
  5
112
100
AcDbEntity
  8
text
 62
7
100
AcDbSpline
 70
0
 71
3
 72
25
 73
21
 74
19
 40
0.000000
 40
0.000000
 40
0.000000
 40
0.000000
 40
0.012521
 40
0.024938
 40
0.037459
 40
0.049980
 40
0.062397
 40
0.074918
 40
0.087439
 40
0.099856
 40
0.112377
 40
0.124898
 40
0.137315
 40
0.149836
 40
0.174844
 40
0.199110
 40
0.224117
 40
0.249125
 40
0.273391
 40
0.298399
 40
0.298399
 40
0.298399
 40
0.298399
 10
25.015504
 20
218.648832
 30
0.0
 10
25.015822
 20
218.644646
 30
0.0
 10
25.016457
 20
218.636309
 30
0.0
 10
25.021476
 20
218.624643
 30
0.0
 10
25.029111
 20
218.614619
 30
0.0
 10
25.039148
 20
218.606934
 30
0.0
 10
25.050811
 20
218.602101
 30
0.0
 10
25.063334
 20
218.600448
 30
0.0
 10
25.075855
 20
218.602101
 30
0.0
 10
25.087522
 20
218.606934
 30
0.0
 10
25.097545
 20
218.614620
 30
0.0
 10
25.105232
 20
218.624641
 30
0.0
 10
25.110060
 20
218.636315
 30
0.0
 10
25.112286
 20
218.652976
 30
0.0
 10
25.106671
 20
218.673897
 30
0.0
 10
25.088387
 20
218.692159
 30
0.0
 10
25.063290
 20
218.698943
 30
0.0
 10
25.038451
 20
218.692164
 30
0.0
 10
25.019409
 20
218.673876
 30
0.0
 10
25.016818
 20
218.657263
 30
0.0
 10
25.015504
 20
218.648832
 30
0.0
 11
25.015504
 21
218.648832
 31
0.0
 11
25.017142
 21
218.636418
 31
0.0
 11
25.021894
 21
218.624946
 31
0.0
 11
25.029512
 21
218.615010
 31
0.0
 11
25.039448
 21
218.607391
 31
0.0
 11
25.050920
 21
218.602639
 31
0.0
 11
25.063333
 21
218.601001
 31
0.0
 11
25.075747
 21
218.602639
 31
0.0
 11
25.087219
 21
218.607391
 31
0.0
 11
25.097155
 21
218.615010
 31
0.0
 11
25.104773
 21
218.624946
 31
0.0
 11
25.109525
 21
218.636418
 31
0.0
 11
25.111163
 21
218.648832
 31
0.0
 11
25.104633
 21
218.672972
 31
0.0
 11
25.087474
 21
218.690130
 31
0.0
 11
25.063333
 21
218.696660
 31
0.0
 11
25.039193
 21
218.690130
 31
0.0
 11
25.022034
 21
218.672972
 31
0.0
 11
25.015504
 21
218.648832
 31
0.0
  0
LWPOLYLINE
  5
113
100
AcDbEntity
  8
text
 62
7
100
AcDbPolyline
 90
2
 70
1
 10
25.015504
 20
218.648832
 30
0.0
 10
25.015504
 20
218.648832
 30
0.0
  0
LWPOLYLINE
  5
114
100
AcDbEntity
  8
text
 62
7
100
AcDbPolyline
 90
2
 70
1
 10
46.063333
 20
218.600995
 30
0.0
 10
46.063333
 20
218.600995
 30
0.0
  0
SPLINE
  5
115
100
AcDbEntity
  8
text
 62
7
100
AcDbSpline
 70
0
 71
3
 72
25
 73
21
 74
19
 40
0.000000
 40
0.000000
 40
0.000000
 40
0.000000
 40
0.025008
 40
0.049274
 40
0.074281
 40
0.099289
 40
0.123555
 40
0.148563
 40
0.161084
 40
0.173501
 40
0.186022
 40
0.198543
 40
0.210960
 40
0.223481
 40
0.236002
 40
0.248419
 40
0.260940
 40
0.273460
 40
0.285878
 40
0.298398
 40
0.298398
 40
0.298398
 40
0.298398
 10
46.063333
 20
218.600995
 30
0.0
 10
46.064648
 20
218.592564
 30
0.0
 10
46.067238
 20
218.575951
 30
0.0
 10
46.086280
 20
218.557662
 30
0.0
 10
46.111119
 20
218.550884
 30
0.0
 10
46.136216
 20
218.557668
 30
0.0
 10
46.154500
 20
218.575929
 30
0.0
 10
46.160115
 20
218.596850
 30
0.0
 10
46.157889
 20
218.613512
 30
0.0
 10
46.153061
 20
218.625185
 30
0.0
 10
46.145374
 20
218.635207
 30
0.0
 10
46.135351
 20
218.642893
 30
0.0
 10
46.123685
 20
218.647725
 30
0.0
 10
46.111163
 20
218.649379
 30
0.0
 10
46.098640
 20
218.647725
 30
0.0
 10
46.086977
 20
218.642893
 30
0.0
 10
46.076940
 20
218.635207
 30
0.0
 10
46.069305
 20
218.625184
 30
0.0
 10
46.064287
 20
218.613517
 30
0.0
 10
46.063652
 20
218.605181
 30
0.0
 10
46.063333
 20
218.600995
 30
0.0
 11
46.063333
 21
218.600995
 31
0.0
 11
46.069864
 21
218.576855
 31
0.0
 11
46.087022
 21
218.559697
 31
0.0
 11
46.111163
 21
218.553167
 31
0.0
 11
46.135303
 21
218.559697
 31
0.0
 11
46.152462
 21
218.576855
 31
0.0
 11
46.158992
 21
218.600995
 31
0.0
 11
46.157354
 21
218.613408
 31
0.0
 11
46.152602
 21
218.624880
 31
0.0
 11
46.144984
 21
218.634817
 31
0.0
 11
46.135048
 21
218.642435
 31
0.0
 11
46.123576
 21
218.647187
 31
0.0
 11
46.111163
 21
218.648826
 31
0.0
 11
46.098749
 21
218.647187
 31
0.0
 11
46.087277
 21
218.642435
 31
0.0
 11
46.077341
 21
218.634816
 31
0.0
 11
46.069723
 21
218.624880
 31
0.0
 11
46.064971
 21
218.613408
 31
0.0
 11
46.063333
 21
218.600995
 31
0.0
  0
LWPOLYLINE
  5
116
100
AcDbEntity
  8
text
 62
7
100
AcDbPolyline
 90
5
 70
1
 10
23.046871
 20
221.780200
 30
0.0
 10
47.979796
 20
221.780200
 30
0.0
 10
47.979796
 20
234.713124
 30
0.0
 10
23.046871
 20
234.713124
 30
0.0
 10
23.046871
 20
221.780200
 30
0.0
  0
ENDSEC
  0
SECTION
  2
OBJECTS
  0
DICTIONARY
  5
C
330
0
100
AcDbDictionary
  3
ACAD_GROUP
350
D
  3
ACAD_MLINESTYLE
350
17
  0
DICTIONARY
  5
D
330
C
100
AcDbDictionary
  0
DICTIONARY
  5
1A
330
C
100
AcDbDictionary
  0
DICTIONARY
  5
17
330
C
100
AcDbDictionary
  3
STANDARD
350
18
  0
DICTIONARY
  5
19
330
C
100
AcDbDictionary
  0
ENDSEC
  0
EOF
